<svg width="130" height="68" viewBox="0 0 130 68" fill="none" xmlns="http://www.w3.org/2000/svg">
<path d="M80.5 55.0002L93.8865 19.163L100.5 31.5002L108 14.9999" stroke="white" stroke-width="2" stroke-linecap="round" stroke-linejoin="round"/>
<path d="M110.479 20.6906L109.017 13.5254L102.07 15.537" stroke="white" stroke-width="2" stroke-linecap="round" stroke-linejoin="round"/>
<path d="M2.91555 47.9999L2.28767 47.9999L2.28767 40.6852L2.91555 40.6852C2.91555 42.6526 3.61667 44.3269 5.01891 45.7082C6.44209 47.0895 8.16874 47.7802 10.1989 47.7802C11.036 47.7802 11.7057 47.5395 12.208 47.0581C12.7313 46.5558 12.9929 45.8966 12.9929 45.0803C12.9929 44.1595 12.3964 43.3746 11.2034 42.7258C10.5546 42.391 9.43494 41.8677 7.84434 41.1561C6.25373 40.4236 5.13402 39.8062 4.48522 39.3039C3.18762 38.2993 2.61207 36.9703 2.75858 35.3169C2.92601 33.6635 3.55388 32.3869 4.64219 31.4869C5.7305 30.566 6.95485 30.1056 8.31524 30.1056C9.69656 30.1056 10.9314 30.294 12.0197 30.6707C13.1289 31.0265 13.7568 31.2044 13.9033 31.2044C14.3219 31.2044 14.5312 30.8381 14.5312 30.1056L15.159 30.1056L15.159 35.8506L14.5312 35.8506C14.5312 34.3437 13.9765 33.1194 12.8673 32.1776C11.7581 31.2148 10.3349 30.7335 8.59778 30.7335C7.82341 30.7335 7.21646 30.9637 6.77695 31.4241C6.33744 31.8636 6.11769 32.3555 6.11769 32.8996C6.11769 33.4438 6.19094 33.8624 6.33744 34.1554C6.48395 34.4484 6.7351 34.7205 7.09089 34.9716C7.46761 35.2018 7.79201 35.3902 8.06409 35.5367C8.33617 35.6832 8.76521 35.882 9.35123 36.1332C9.95817 36.3843 10.3768 36.5622 10.607 36.6669C11.7581 37.1901 12.4383 37.504 12.6476 37.6087C12.8568 37.6924 13.1603 37.8389 13.558 38.0482C13.9556 38.2575 14.2486 38.4458 14.437 38.6133C14.6463 38.7807 14.9079 38.99 15.2218 39.2411C15.5358 39.4923 15.766 39.7539 15.9125 40.026C16.059 40.2771 16.2055 40.5701 16.352 40.905C16.645 41.5747 16.7496 42.3596 16.6659 43.2595C16.4985 44.9548 15.8602 46.2524 14.7509 47.1523C13.6626 48.0313 12.1871 48.4708 10.3244 48.4708C8.6501 48.4708 6.98625 48.0418 5.33285 47.1837C4.76777 46.8907 4.34919 46.7442 4.07711 46.7442C3.30273 46.7442 2.91555 47.1628 2.91555 47.9999ZM18.8515 40.7794C18.8515 38.3098 19.5735 36.4366 21.0176 35.16C22.4617 33.8833 24.293 33.245 26.5115 33.245C28.7509 33.245 30.4148 33.81 31.5031 34.9402C32.5914 36.0495 32.9786 37.2006 32.6646 38.3935C32.4972 39.0423 32.1414 39.5237 31.5972 39.8376C31.074 40.1306 30.4985 40.2039 29.8706 40.0574C28.5521 39.7434 27.8928 38.9795 27.8928 37.7656C27.8928 37.4517 27.9242 36.9808 27.987 36.3529C28.0707 35.7041 28.1021 35.2332 28.0812 34.9402C28.0602 34.6472 27.9975 34.417 27.8928 34.2496C27.6835 33.8938 27.1917 33.7577 26.4173 33.8414C24.5337 34.1344 23.5919 36.4471 23.5919 40.7794C23.5919 45.0908 25.1302 47.2465 28.2067 47.2465C28.9183 47.2465 29.6404 47.0581 30.3729 46.6814C31.1054 46.3047 31.6496 45.8547 32.0054 45.3315L32.4449 45.6454C31.9635 46.4407 31.2415 47.0791 30.2787 47.5604C29.316 48.0418 28.2381 48.2825 27.0452 48.2825C21.5827 48.2825 18.8515 45.7815 18.8515 40.7794ZM50.18 47.3721C49.9707 47.5814 49.5731 47.7697 48.9871 47.9372C48.4011 48.0837 47.7209 48.1569 46.9465 48.1569C45.2303 48.1569 44.1525 47.6441 43.713 46.6186C42.6665 47.7069 41.0654 48.2511 38.9097 48.2511C37.7586 48.2511 36.8064 47.9895 36.0529 47.4662C35.3204 46.9221 34.9541 46.1268 34.9541 45.0803C34.9541 43.6781 35.4983 42.6002 36.5866 41.8468C37.6749 41.0724 39.5795 40.5283 42.3002 40.2143L43.556 40.0574L43.556 38.5191C43.556 36.6983 43.4199 35.4739 43.1479 34.846C42.8758 34.2182 42.3316 33.9042 41.5154 33.9042C40.7201 33.9042 40.2073 34.0193 39.9771 34.2496C39.7469 34.4588 39.6632 34.71 39.726 35.003C39.7888 35.2751 39.8934 35.6413 40.0399 36.1018C40.1864 36.5622 40.2597 36.9285 40.2597 37.2006C40.2597 37.8494 40.0294 38.404 39.569 38.8644C39.1295 39.3039 38.5853 39.5237 37.9365 39.5237C37.3087 39.5237 36.7645 39.3039 36.3041 38.8644C35.8436 38.404 35.6134 37.8494 35.6134 37.2006C35.6134 36.1332 36.1576 35.2228 37.2459 34.4693C38.3551 33.6949 39.998 33.3077 42.1747 33.3077C44.3722 33.3077 45.9314 33.7368 46.8523 34.5949C47.7941 35.453 48.265 36.9703 48.265 39.147L48.265 44.7978C48.265 45.907 48.4011 46.6082 48.6731 46.9012C48.9452 47.1732 49.4475 47.2256 50.18 47.0581L50.18 47.3721ZM39.3179 44.4525C39.4225 45.2478 39.7155 45.8652 40.1969 46.3047C40.6782 46.7233 41.2329 46.9326 41.8607 46.9326C42.5095 46.9326 43.0746 46.6186 43.556 45.9908L43.556 40.6538L42.4258 40.8108C41.4631 40.9364 40.6782 41.3026 40.0713 41.9096C39.4853 42.5165 39.2341 43.3642 39.3179 44.4525ZM58.3399 47.3721L59.9096 47.3721L59.9096 47.9999L52.0612 47.9999L52.0612 47.3721L53.6309 47.3721L53.6309 27.5941L52.0612 27.5941L52.0612 26.9662L58.3399 26.9662L58.3399 47.3721ZM75.9929 41.7212L66.512 41.7212C66.7213 45.4047 68.155 47.2465 70.813 47.2465C71.5245 47.2465 72.3303 47.0791 73.2303 46.7442C74.1511 46.4093 74.8209 45.9384 75.2395 45.3315L75.679 45.6454C75.2185 46.4198 74.4337 47.0581 73.3244 47.5604C72.2152 48.0627 71.106 48.3139 69.9967 48.3139C68.9084 48.3139 67.9248 48.2092 67.0457 47.9999C66.1667 47.7697 65.3086 47.393 64.4715 46.8698C63.6343 46.3465 62.975 45.5617 62.4937 44.5153C62.0332 43.4688 61.803 42.2026 61.803 40.7166C61.803 38.1842 62.5041 36.3111 63.9064 35.0972C65.3086 33.8624 67.0039 33.245 68.9921 33.245C71.0013 33.245 72.6652 33.9147 73.9837 35.2542C75.3232 36.5936 75.9929 38.7493 75.9929 41.7212ZM66.4806 41.0934L71.5978 41.0934C71.5978 39.1679 71.3885 37.4831 70.9699 36.039C70.5723 34.5949 69.9235 33.8728 69.0235 33.8728C68.1236 33.8728 67.4748 34.574 67.0771 35.9762C66.6795 37.3575 66.4806 38.9481 66.4806 40.748L66.4806 41.0934ZM90.8624 39.1783C90.8624 36.4994 90.4961 34.417 89.7636 32.931C89.052 31.4241 88.0579 30.6707 86.7812 30.6707C85.5255 30.6707 84.5314 31.4241 83.7989 32.931C83.0663 34.4379 82.7001 36.5413 82.7001 39.2411C82.7001 41.941 83.0454 44.0234 83.7361 45.4885C84.4477 46.9535 85.4627 47.686 86.7812 47.686C89.502 47.686 90.8624 44.8501 90.8624 39.1783ZM95.9168 39.3667C95.9168 42.234 95.0691 44.442 93.3739 45.9907C91.6786 47.5395 89.4706 48.3139 86.7499 48.3139C84.0291 48.3139 81.8315 47.55 80.1572 46.0221C78.4829 44.4734 77.6457 42.2654 77.6457 39.3981C77.6457 36.5099 78.4829 34.2286 80.1572 32.5543C81.8315 30.88 84.05 30.0428 86.8126 30.0428C89.5962 30.0428 91.8042 30.88 93.4367 32.5543C95.0901 34.2077 95.9168 36.4785 95.9168 39.3667ZM103.453 40.4341L103.453 45.614C104.019 46.7442 104.751 47.3093 105.651 47.3093C106.572 47.3093 107.357 46.7861 108.006 45.7396C108.654 44.6931 108.979 43.0188 108.979 40.7166C108.979 38.3935 108.728 36.7715 108.225 35.8506C107.723 34.9088 106.959 34.4379 105.934 34.4379C104.908 34.4379 104.238 34.8565 103.924 35.6937C103.61 36.5308 103.453 38.111 103.453 40.4341ZM103.453 35.003C104.165 33.7891 105.442 33.1822 107.283 33.1822C109.125 33.1822 110.663 33.8519 111.898 35.1914C113.133 36.5308 113.751 38.4249 113.751 40.8736C113.751 43.3223 113.144 45.2373 111.93 46.6186C110.716 47.9999 109.24 48.6906 107.503 48.6906C106.645 48.6906 105.839 48.5127 105.086 48.1569C104.332 47.8011 103.788 47.2674 103.453 46.5558L103.453 53.9647L105.023 53.9647L105.023 54.5926L98.7444 54.5926L98.7444 34.1868L97.1747 34.1868L97.1747 33.5589L103.453 33.5589L103.453 35.003ZM123.016 47.7488C125.192 47.7488 126.28 47.1523 126.28 45.9594C126.28 45.2896 125.904 44.7455 125.15 44.3269C124.397 43.8874 123.486 43.5316 122.419 43.2595C121.352 42.9874 120.295 42.6735 119.248 42.3177C118.223 41.9619 117.365 41.3968 116.674 40.6224C116.004 39.8481 115.732 38.833 115.858 37.5773C115.983 36.3215 116.622 35.2855 117.773 34.4693C118.945 33.6531 120.378 33.245 122.074 33.245C123.79 33.245 125.171 33.517 126.218 34.0612C127.264 34.6053 127.85 35.3379 127.976 36.2587C128.059 36.8238 127.965 37.3471 127.693 37.8284C127.442 38.3098 127.013 38.5609 126.406 38.5819C125.82 38.6028 125.328 38.4458 124.931 38.111C124.554 37.7761 124.376 37.3889 124.397 36.9494C124.418 36.5099 124.585 36.1227 124.899 35.7878C125.213 35.432 125.37 35.1495 125.37 34.9402C125.37 34.5844 125.025 34.3228 124.334 34.1554C123.664 33.967 122.88 33.8728 121.98 33.8728C121.101 33.8728 120.378 34.0717 119.813 34.4693C119.248 34.867 118.966 35.3588 118.966 35.9448C118.966 36.5308 119.311 37.0331 120.002 37.4517C120.713 37.8703 121.571 38.2156 122.576 38.4877C123.581 38.7388 124.575 39.0318 125.558 39.3667C126.563 39.6806 127.411 40.1934 128.101 40.905C128.813 41.6166 129.169 42.5165 129.169 43.6048C129.169 45.0489 128.656 46.2105 127.63 47.0895C126.605 47.9476 125.056 48.3767 122.984 48.3767C120.912 48.3767 119.227 48.0627 117.93 47.4349C116.653 46.807 115.952 46.0012 115.826 45.0175C115.743 44.4525 115.837 43.9292 116.109 43.4479C116.381 42.9665 116.81 42.7154 117.396 42.6944C117.982 42.6735 118.463 42.8305 118.84 43.1653C119.238 43.5002 119.426 43.8874 119.405 44.3269C119.384 44.7664 119.217 45.1641 118.903 45.5198C118.589 45.8547 118.432 46.1268 118.432 46.3361C118.432 46.7547 118.913 47.1 119.876 47.3721C120.86 47.6232 121.906 47.7488 123.016 47.7488Z" fill="white"/>
</svg>
