<svg width="18" height="16" viewBox="0 0 18 16" fill="#FFFFFF" xmlns="http://www.w3.org/2000/svg">
<path d="M8.6875 11.2498C10.1028 11.2498 11.25 10.1585 11.25 8.81226C11.25 7.46602 10.1028 6.37476 8.6875 6.37476C7.27223 6.37476 6.125 7.46602 6.125 8.81226C6.125 10.1585 7.27223 11.2498 8.6875 11.2498Z" stroke="white" stroke-width="1.5" stroke-linecap="round" stroke-linejoin="round"/>
<path d="M1 11.9V5.725C1 4.81492 1 4.35987 1.1862 4.01227C1.34998 3.7065 1.61132 3.45791 1.93277 3.30212C2.2982 3.125 2.77658 3.125 3.73333 3.125H4.63417C4.73918 3.125 4.79168 3.125 4.84012 3.11972C5.09287 3.09218 5.31956 2.95892 5.45848 2.7562C5.4851 2.71734 5.50859 2.67267 5.55555 2.58333C5.64947 2.40465 5.69643 2.31531 5.74969 2.2376C6.02753 1.83217 6.48091 1.56563 6.98642 1.51055C7.08328 1.5 7.18826 1.5 7.3983 1.5H9.97668C10.1867 1.5 10.2917 1.5 10.3886 1.51055C10.8941 1.56563 11.3474 1.83217 11.6253 2.2376C11.6785 2.3153 11.7255 2.40468 11.8195 2.58333C11.8664 2.67267 11.8898 2.71734 11.9165 2.7562C12.0555 2.95892 12.2821 3.09218 12.5348 3.11972C12.5833 3.125 12.6358 3.125 12.7408 3.125H13.6417C14.5984 3.125 15.0768 3.125 15.4422 3.30212C15.7637 3.45791 16.025 3.7065 16.1888 4.01227C16.375 4.35987 16.375 4.81492 16.375 5.725V11.9C16.375 12.8101 16.375 13.2652 16.1888 13.6128C16.025 13.9185 15.7637 14.1671 15.4422 14.3229C15.0768 14.5 14.5984 14.5 13.6417 14.5H3.73333C2.77658 14.5 2.2982 14.5 1.93277 14.3229C1.61132 14.1671 1.34998 13.9185 1.1862 13.6128C1 13.2652 1 12.8101 1 11.9Z" stroke="white" stroke-width="1.5" stroke-linecap="round" stroke-linejoin="round"/>
</svg>
