<svg width="13" height="19" viewBox="0 0 13 19" fill="none" xmlns="http://www.w3.org/2000/svg">
<path fill-rule="evenodd" clip-rule="evenodd" d="M8.92836 3.99758V8.62727C8.9555 10.134 7.75658 11.3778 6.24981 11.4058C4.74303 11.3778 3.54399 10.134 3.57126 8.62727V3.99758C3.54471 2.49127 4.74351 1.24824 6.24981 1.22021C7.75611 1.24824 8.95491 2.49127 8.92836 3.99758Z" stroke="black" stroke-width="1.77784" stroke-linecap="round" stroke-linejoin="round"/>
<path d="M1.44328 11.7599C1.05501 11.456 0.49382 11.5243 0.189858 11.9126C-0.114116 12.3008 -0.0457709 12.862 0.3425 13.1661L1.44328 11.7599ZM12.1574 13.1661C12.5458 12.862 12.6141 12.3008 12.3102 11.9126C12.0061 11.5243 11.445 11.456 11.0567 11.7599L12.1574 13.1661ZM7.14284 14.3153C7.14284 13.8223 6.74308 13.4225 6.24999 13.4225C5.7569 13.4225 5.35714 13.8223 5.35714 14.3153H7.14284ZM5.35714 17.8867C5.35714 18.3798 5.7569 18.7796 6.24999 18.7796C6.74308 18.7796 7.14284 18.3798 7.14284 17.8867H5.35714ZM0.3425 13.1661C3.81239 15.8825 8.68759 15.8825 12.1574 13.1661L11.0567 11.7599C8.23343 13.9702 4.26655 13.9702 1.44328 11.7599L0.3425 13.1661ZM5.35714 14.3153V17.8867H7.14284V14.3153H5.35714Z" fill="black"/>
</svg>
